<svg width="13" height="12" viewBox="0 0 13 12" fill="none" xmlns="http://www.w3.org/2000/svg">
<path fill-rule="evenodd" clip-rule="evenodd" d="M0.196629 10.5399C-0.0835261 10.8937 -0.0601799 11.4091 0.266668 11.736C0.618658 12.088 1.18935 12.088 1.54134 11.736L6.00118 7.27616L10.4613 11.7363L10.54 11.8064C10.8937 12.0865 11.4092 12.0632 11.736 11.7363C12.088 11.3843 12.088 10.8136 11.736 10.4616L7.27584 6.00149L11.7387 1.53866L11.8087 1.46004C12.0889 1.10626 12.0655 0.59084 11.7387 0.263992C11.3867 -0.0879972 10.816 -0.0879976 10.464 0.263992L6.00118 4.72682L1.53866 0.264314L1.46005 0.194275C1.10626 -0.0858795 0.59084 -0.0625333 0.263992 0.264314C-0.0879975 0.616304 -0.0879975 1.18699 0.263992 1.53898L4.72651 6.00149L0.266668 10.4613L0.196629 10.5399Z" fill="#FAFAFA"/>
</svg>
