<svg width="18" height="18" viewBox="0 0 18 18" fill="none" xmlns="http://www.w3.org/2000/svg">
<path fill-rule="evenodd" clip-rule="evenodd" d="M11.9467 0H2.30974C1.03549 0 0 1.03543 0 2.30974V11.9467C0 13.1812 1.03543 14.2167 2.30974 14.2167H3.82305V15.73C3.82305 17.0043 4.81849 18 6.09304 18H15.73C17.0043 18 18 17.0046 18 15.73V6.09304C18 4.81879 17.0046 3.82305 15.73 3.82305H14.2167V2.30974C14.2167 1.03549 13.1813 0 11.9467 0ZM5.69473 14.2163H11.9467C13.1812 14.2163 14.2167 13.1809 14.2167 11.9464V5.69437H15.73C15.8495 5.69437 15.9291 5.73413 16.0088 5.81389C16.0886 5.89365 16.1283 5.97317 16.1283 6.09269V15.7297C16.1283 15.8492 16.0886 15.9287 16.0088 16.0085C15.9291 16.0882 15.8495 16.128 15.73 16.128H6.09304C5.97352 16.128 5.89399 16.0882 5.81423 16.0085C5.73448 15.9287 5.69471 15.8492 5.69471 15.7297L5.69473 14.2163ZM2.3098 1.91113H11.9468C12.0663 1.91113 12.1458 1.95089 12.2256 2.03065C12.3053 2.07042 12.3451 2.18994 12.3451 2.30946V11.9464C12.3451 12.066 12.3053 12.1455 12.2256 12.2252C12.1458 12.305 12.0663 12.3448 11.9468 12.3448H2.3098C2.19028 12.3448 2.07076 12.305 2.031 12.2252C1.95124 12.1455 1.91148 12.066 1.91148 11.9464V2.30946C1.91148 2.18994 1.95124 2.07041 2.031 2.03065C2.07076 1.9509 2.19028 1.91113 2.3098 1.91113Z" fill="#2574FF"/>
</svg>
