<svg width="21" height="21" viewBox="0 0 21 21" fill="none" xmlns="http://www.w3.org/2000/svg">
<path d="M12.0717 20.5286H0.823397C0.370602 20.5286 0 20.1581 0 19.7052C0 19.2524 0.370418 18.8818 0.823397 18.8818H12.0717C12.5245 18.8818 12.8951 19.2522 12.8951 19.7052C12.8951 20.158 12.5245 20.5286 12.0717 20.5286Z" fill="#3F4856"/>
<path d="M6.4423 15.11C5.87104 15.11 5.40283 14.647 5.40283 14.0706V13.9986L5.71672 9.48071C5.73215 9.28509 5.81453 9.09486 5.95343 8.95576L14.0785 0.841245C15.2054 -0.280415 17.0322 -0.280415 18.159 0.841245L19.6769 2.35917C20.7986 3.48602 20.7986 5.31282 19.6769 6.43967L11.5574 14.5592C11.4185 14.6981 11.228 14.7857 11.0324 14.796L6.51454 15.1098H6.44257L6.4423 15.11ZM7.34288 9.90786L7.09594 13.4172L10.6052 13.1702L18.5038 5.26657C18.9874 4.78293 18.9874 4.00079 18.5038 3.51714L16.9959 2.00928C16.5123 1.52564 15.7302 1.52564 15.2465 2.00928L7.34288 9.90786Z" fill="#3F4856"/>
<path d="M17.9941 7.77747C17.7781 7.77747 17.567 7.69007 17.4127 7.53555L12.9822 3.10524C12.6477 2.79655 12.622 2.27683 12.9307 1.94232C13.2393 1.6078 13.7591 1.58213 14.0936 1.89081C14.1142 1.90625 14.1297 1.92688 14.1451 1.94232L18.5756 6.37282C18.8947 6.69693 18.8947 7.21666 18.5756 7.53573C18.4211 7.69008 18.2102 7.77747 17.9941 7.77747Z" fill="#3F4856"/>
</svg>
