<svg width="15" height="12" viewBox="0 0 15 12" fill="none" xmlns="http://www.w3.org/2000/svg">
<path d="M13.5001 0.173584H1.49995C1.10221 0.173984 0.720983 0.336684 0.439743 0.626044C0.158503 0.915403 0.000398498 1.30767 0 1.71691V9.94844C0.000389133 10.3577 0.158516 10.7499 0.439743 11.0393C0.720969 11.3287 1.10221 11.4914 1.49995 11.4918H13.5001C13.8978 11.4914 14.279 11.3287 14.5603 11.0393C14.8415 10.7499 14.9996 10.3577 15 9.94844V1.71691C14.9996 1.30767 14.8415 0.915417 14.5603 0.626044C14.279 0.33667 13.8978 0.173994 13.5001 0.173584V0.173584ZM7.85333 6.7992C7.75955 6.89556 7.63242 6.94962 7.49983 6.94962C7.36724 6.94962 7.24014 6.89556 7.14633 6.7992L1.70683 1.2024H13.2928L7.85333 6.7992ZM4.79287 5.83261L0.999831 9.73533V1.92988L4.79287 5.83261ZM5.49984 6.56002L6.43926 7.52661V7.52675C6.72063 7.81611 7.10213 7.97869 7.49987 7.97869C7.8976 7.97869 8.2791 7.81613 8.56047 7.52675L9.49989 6.56002L13.2929 10.4627H1.70693L5.49984 6.56002ZM10.2068 5.83261L13.9998 1.92988V9.73533L10.2068 5.83261Z" fill="#3F4856"/>
</svg>
