<svg width="20" height="13" viewBox="0 0 20 13" fill="none" xmlns="http://www.w3.org/2000/svg">
<path d="M10 13C3.67193 13 0.208147 6.99488 0.0749243 6.76391C-0.0249748 6.59889 -0.0249748 6.43387 0.0749243 6.26908C0.208046 6.00509 3.67193 0 10 0C16.3281 0 19.7919 6.00512 19.9251 6.23609C20.025 6.40111 20.025 6.56613 19.9251 6.73092C19.792 6.99491 16.3281 13 10 13ZM1.1074 6.49995C1.80694 7.58879 4.97091 12.0101 10 12.0101C15.0291 12.0101 18.1932 7.62179 18.8926 6.49995C18.1933 5.41111 15.0291 0.989761 10 0.989761C4.93749 0.989761 1.80682 5.41105 1.1074 6.49995ZM10 10.4593C7.80177 10.4593 6.00338 8.67769 6.00338 6.49995C6.00338 4.32221 7.80177 2.54059 10 2.54059C12.1982 2.54059 13.9966 4.32221 13.9966 6.49995C13.9966 8.67769 12.1982 10.4593 10 10.4593ZM10 3.53033C8.33472 3.53033 7.00261 4.88319 7.00261 6.49978C7.00261 8.14953 8.3682 9.46922 10 9.46922C11.6653 9.46922 12.9974 8.11636 12.9974 6.49978C12.9974 4.85002 11.6653 3.53033 10 3.53033Z" fill="#295CF3"/>
</svg>
