<svg width="273" height="186" viewBox="0 0 273 186" xmlns="http://www.w3.org/2000/svg">
<path d="M240.734 0H10.2656C1.71164 0.0102886 -6.49093 3.41177 -12.5384 9.46158C-18.588 15.5091 -21.9895 23.7116 -22 32.2656V212.031C-21.9918 219.363 -19.0759 226.394 -13.8923 231.579C-8.70669 236.763 -1.67559 239.679 5.6562 239.687H69.7967C72.5581 239.687 74.7967 241.926 74.7967 244.687V257.734C74.7967 260.495 72.5581 262.734 69.7967 262.734H51.7499C48.083 262.734 44.564 264.191 41.9717 266.784C39.3794 269.376 37.922 272.895 37.922 276.562V290.39C37.922 291.612 38.4077 292.785 39.2719 293.649C40.1362 294.514 41.3091 294.999 42.5314 294.999H208.469C209.691 294.999 210.864 294.514 211.728 293.649C212.592 292.785 213.078 291.612 213.078 290.39V276.562C213.078 272.895 211.621 269.376 209.028 266.784C206.436 264.191 202.917 262.734 199.25 262.734H181.203C178.442 262.734 176.203 260.495 176.203 257.734V244.687C176.203 241.926 178.442 239.687 181.203 239.687H245.344C252.676 239.679 259.707 236.763 264.892 231.579C270.076 226.394 272.992 219.363 273 212.031V32.2656C272.99 23.7116 269.588 15.5091 263.538 9.46158C257.491 3.41199 249.288 0.0105357 240.734 0ZM10.2656 9.21873H240.734C246.045 9.22491 251.192 11.0625 255.305 14.4207C257.823 16.4753 259.859 19.0227 261.306 21.8822C262.735 24.7075 260.353 27.6562 257.187 27.6562H-6.18721C-9.3536 27.6562 -11.7358 24.7074 -10.3063 21.8821C-8.85962 19.0227 -6.82316 16.4753 -4.3053 14.4207C-0.191849 11.0625 4.95452 9.2249 10.2656 9.21873ZM203.859 276.562V280.781C203.859 283.542 201.62 285.781 198.859 285.781H52.1405C49.3791 285.781 47.1405 283.542 47.1405 280.781V276.562C47.1405 274.017 49.2044 271.953 51.7499 271.953H199.25C200.472 271.953 201.645 272.438 202.509 273.303C203.373 274.167 203.859 275.34 203.859 276.562ZM166.984 257.734C166.984 260.495 164.745 262.734 161.984 262.734H89.0154C86.254 262.734 84.0154 260.495 84.0154 257.734V244.687C84.0154 241.926 86.254 239.687 89.0154 239.687H161.984C164.745 239.687 166.984 241.926 166.984 244.687V257.734ZM245.343 230.468H5.6562C0.767006 230.468 -3.92285 228.526 -7.38172 225.069C-10.8387 221.61 -12.7813 216.92 -12.7813 212.031C-12.7813 209.485 -10.7176 207.422 -8.1719 207.422H94.3068C95.3503 207.422 96.3511 207.836 97.089 208.574L103.805 215.29C103.805 215.29 103.805 215.291 103.805 215.291C103.804 215.291 103.804 215.291 103.804 215.291C104.669 216.155 105.841 216.641 107.063 216.641H143.938C145.16 216.641 146.333 216.155 147.198 215.291L153.6 208.886C154.538 207.948 155.81 207.422 157.136 207.422H190.032C192.577 207.422 194.641 205.358 194.641 202.812C194.641 200.267 192.577 198.203 190.032 198.203H153.157C151.935 198.203 150.762 198.688 149.898 199.553L143.495 205.957C142.557 206.895 141.285 207.422 139.959 207.422H110.6C109.557 207.422 108.556 207.007 107.818 206.269L101.102 199.553C101.102 199.553 101.102 199.553 101.103 199.553C101.103 199.553 101.103 199.552 101.103 199.552C100.239 198.688 99.066 198.203 97.8441 198.203H24.4848C21.7234 198.203 19.4848 195.964 19.4848 193.203V170.547C19.4992 161.573 22.7834 152.911 28.722 146.183C33.4012 140.881 39.4757 137.066 46.1976 135.134C49.0917 134.302 51.7504 136.654 51.7504 139.665V152.862C51.7504 152.861 51.7494 152.86 51.7484 152.86C46.7552 154.351 42.7906 158.157 41.0993 163.087C39.4099 168.015 40.2022 173.456 43.2312 177.697C46.2602 181.936 51.1493 184.452 56.3597 184.452C61.5701 184.452 66.4592 181.936 69.4882 177.697C72.5173 173.456 73.3095 168.015 71.6201 163.087C70.3366 159.346 67.7441 156.252 64.3861 154.326C62.4682 153.226 60.969 151.344 60.969 149.134V138.671C60.969 135.91 63.2076 133.671 65.969 133.671H102.063C104.824 133.671 107.063 135.91 107.063 138.671V144.323C107.063 146.652 105.414 148.606 103.318 149.621C101.6 150.454 100.019 151.562 98.6426 152.911C95.1732 156.358 93.2267 161.047 93.2346 165.937V179.765C93.2346 182.31 95.2985 184.374 97.844 184.374C100.389 184.374 102.453 182.31 102.453 179.765V165.937C102.449 163.492 103.423 161.146 105.159 159.424C106.91 157.743 109.244 156.802 111.672 156.802C114.1 156.802 116.434 157.743 118.185 159.424C119.921 161.146 120.895 163.492 120.89 165.937V179.765C120.89 182.31 122.954 184.374 125.5 184.374C128.045 184.374 130.109 182.31 130.109 179.765V165.937C130.117 161.045 128.171 156.354 124.701 152.907C123.325 151.559 121.744 150.45 120.025 149.618C117.93 148.602 116.281 146.648 116.281 144.32V139.665C116.281 136.654 118.94 134.302 121.834 135.134C128.555 137.066 134.63 140.881 139.31 146.183C145.248 152.911 148.532 161.573 148.547 170.547V184.375C148.547 186.92 150.611 188.984 153.156 188.984C155.701 188.984 157.765 186.92 157.765 184.375V170.547C157.751 159.124 153.502 148.113 145.838 139.643C139.19 132.293 130.382 127.31 120.745 125.364C118.231 124.856 116.281 122.736 116.281 120.171V82.9687C116.271 74.4147 112.869 66.2122 106.82 60.1647C100.772 54.1151 92.5695 50.7136 84.0155 50.7031C75.4616 50.7134 67.259 54.1149 61.2116 60.1647C55.162 66.2122 51.7605 74.4147 51.75 82.9687V120.17C51.75 122.736 49.8001 124.856 47.2855 125.364C37.649 127.31 28.8412 132.293 22.1926 139.643C14.5295 148.113 10.2804 159.124 10.2657 170.547V193.203C10.2657 195.964 8.0271 198.203 5.26567 198.203H-7.78116C-10.5426 198.203 -12.7812 195.964 -12.7812 193.203V41.875C-12.7812 39.1136 -10.5426 36.875 -7.78116 36.875H258.781C261.542 36.875 263.781 39.1136 263.781 41.875V193.203C263.781 195.964 261.542 198.203 258.781 198.203H226.906C224.36 198.203 222.297 200.267 222.297 202.812C222.297 205.358 224.36 207.422 226.906 207.422H259.171C261.717 207.422 263.781 209.485 263.781 212.031C263.781 216.92 261.838 221.61 258.381 225.069C254.922 228.526 250.232 230.468 245.343 230.468ZM60.9686 92.578C60.9686 89.8166 63.2072 87.578 65.9686 87.578H102.062C104.824 87.578 107.062 89.8165 107.062 92.578V119.453C107.062 122.214 104.824 124.453 102.062 124.453H65.9686C63.2072 124.453 60.9686 122.214 60.9686 119.453V92.578ZM67.5627 78.3592C64.3963 78.3592 62.0141 75.4105 63.4435 72.5851C64.8903 69.7257 66.9267 67.1783 69.4446 65.1238C73.558 61.7655 78.7044 59.9279 84.0154 59.9218C89.3244 59.9341 94.469 61.7737 98.5821 65.1299C101.097 67.183 103.133 69.7267 104.58 72.5819C106.013 75.4074 103.631 78.3591 100.463 78.3591L67.5627 78.3592ZM56.3592 161.328C59.1557 161.328 61.6766 163.013 62.7465 165.596C63.8165 168.18 63.226 171.154 61.2484 173.131C59.2709 175.109 56.2975 175.699 53.7128 174.629C51.1303 173.559 49.445 171.039 49.445 168.242C49.445 164.423 52.54 161.328 56.3592 161.328Z" fill="#979EA9"/>
</svg>
