<svg width="26" height="17" viewBox="0 0 26 17" fill="none" xmlns="http://www.w3.org/2000/svg">
<path d="M24.2577 0.995705C23.5687 0.620667 22.7546 0.651847 22.0968 1.08946L18.4642 3.43387V1.80836C18.4642 0.933115 17.7752 0.245422 16.8984 0.245422H2.14878C1.27195 0.245422 0.583008 0.933115 0.583008 1.80836V14.937C0.583008 15.8123 1.27195 16.5 2.14878 16.5H16.9297C17.8066 16.5 18.4955 15.8123 18.4955 14.937V13.3429L22.1282 15.6873C22.4726 15.9062 22.8798 16.0312 23.2868 16.0312C23.6313 16.0312 23.9757 15.9374 24.289 15.7811C24.9779 15.406 25.4163 14.6869 25.4163 13.8743V2.90245C25.3851 2.08978 24.9779 1.37072 24.2577 0.995671L24.2577 0.995705ZM15.9904 13.9993H3.08836V2.74619H15.9904V13.9993ZM22.8798 13.1865L18.4642 10.3419V6.37221L22.8798 3.52761V13.1865Z" fill="white"/>
</svg>
