<svg width="26" height="18" viewBox="0 0 26 18" fill="none" xmlns="http://www.w3.org/2000/svg">
<path d="M20.0833 6.75V1.5C20.0833 0.675 19.4458 0 18.6667 0H1.66667C0.8875 0 0.25 0.675 0.25 1.5V16.5C0.25 17.325 0.8875 18 1.66667 18H18.6667C19.4458 18 20.0833 17.325 20.0833 16.5V11.25L23.3275 14.685C24.22 15.63 25.75 14.955 25.75 13.62V4.365C25.75 3.03 24.22 2.355 23.3275 3.3L20.0833 6.75ZM14.4167 10.5H11.5833V13.5C11.5833 14.325 10.9458 15 10.1667 15C9.3875 15 8.75 14.325 8.75 13.5V10.5H5.91667C5.1375 10.5 4.5 9.825 4.5 9C4.5 8.175 5.1375 7.5 5.91667 7.5H8.75V4.5C8.75 3.675 9.3875 3 10.1667 3C10.9458 3 11.5833 3.675 11.5833 4.5V7.5H14.4167C15.1958 7.5 15.8333 8.175 15.8333 9C15.8333 9.825 15.1958 10.5 14.4167 10.5Z" fill="#3F4856"/>
</svg>
