<svg width="14" height="19" viewBox="0 0 14 19" fill="none" xmlns="http://www.w3.org/2000/svg">
<path d="M6.17096 15.322V17.4047C6.17096 17.8616 6.54201 18.2327 6.99893 18.2327C7.45585 18.2327 7.8269 17.8616 7.8269 17.4047V15.322C11.2974 14.9101 14 11.9545 14 8.37485C14 7.9179 13.629 7.54688 13.172 7.54688C12.7151 7.54688 12.3441 7.91792 12.3441 8.37485C12.3441 11.322 9.94602 13.7179 7.00096 13.7179C4.05605 13.7179 1.65594 11.3199 1.65594 8.37485C1.65594 7.9179 1.28489 7.54688 0.827971 7.54688C0.37103 7.54688 1.21668e-06 7.91792 1.21668e-06 8.37485C-0.00209339 11.9525 2.70058 14.9103 6.1708 15.322H6.17096Z" fill="#3F4856"/>
<path d="M6.99884 12.6312C9.34751 12.6312 11.2565 10.7222 11.2565 8.37354V4.25763C11.2565 1.90896 9.34751 0 6.99884 0C4.65017 0 2.74121 1.90896 2.74121 4.25763V8.37354C2.74121 10.72 4.65017 12.6312 6.99884 12.6312V12.6312ZM4.39926 4.25763C4.39926 2.82491 5.56612 1.65805 6.99884 1.65805C8.43156 1.65805 9.59842 2.82491 9.59842 4.25763V8.37354C9.59842 9.80626 8.43156 10.9731 6.99884 10.9731C5.56612 10.9731 4.39926 9.80626 4.39926 8.37354V4.25763Z" fill="#3F4856"/>
</svg>
