<svg width="26" height="23" viewBox="0 0 26 23" fill="none" xmlns="http://www.w3.org/2000/svg">
<path d="M6.45 23C6.365 23 6.195 23 6.11 22.9167C5.77 22.75 5.6 22.5 5.6 22.1667V17.1667H1.35C0.84 17.1667 0.5 16.8333 0.5 16.3333V1.33333C0.5 0.833333 0.84 0.5 1.35 0.5H25.15C25.66 0.5 26 0.833333 26 1.33333V16.3333C26 16.8333 25.66 17.1667 25.15 17.1667H13.59L7.045 22.8333C6.875 22.9167 6.62 23 6.45 23ZM2.2 15.5H6.45C6.96 15.5 7.3 15.8333 7.3 16.3333V20.3333L12.655 15.75C12.825 15.5833 12.995 15.5833 13.25 15.5833H24.3V2.16667H2.2V15.5Z" fill="black"/>
</svg>
