<svg width="25" height="25" viewBox="0 0 25 25" fill="none" xmlns="http://www.w3.org/2000/svg">
<mask id="mask0_102_7" style="mask-type:alpha" maskUnits="userSpaceOnUse" x="0" y="0" width="25" height="25">
<rect x="0.424377" y="0.944824" width="24" height="24" fill="#D9D9D9"/>
</mask>
<g mask="url(#mask0_102_7)">
<path d="M7.42438 14.4448C7.84104 14.4448 8.19521 14.299 8.48688 14.0073C8.77854 13.7157 8.92438 13.3615 8.92438 12.9448C8.92438 12.5282 8.77854 12.174 8.48688 11.8823C8.19521 11.5907 7.84104 11.4448 7.42438 11.4448C7.00771 11.4448 6.65354 11.5907 6.36188 11.8823C6.07021 12.174 5.92438 12.5282 5.92438 12.9448C5.92438 13.3615 6.07021 13.7157 6.36188 14.0073C6.65354 14.299 7.00771 14.4448 7.42438 14.4448ZM12.4244 14.4448C12.841 14.4448 13.1952 14.299 13.4869 14.0073C13.7785 13.7157 13.9244 13.3615 13.9244 12.9448C13.9244 12.5282 13.7785 12.174 13.4869 11.8823C13.1952 11.5907 12.841 11.4448 12.4244 11.4448C12.0077 11.4448 11.6535 11.5907 11.3619 11.8823C11.0702 12.174 10.9244 12.5282 10.9244 12.9448C10.9244 13.3615 11.0702 13.7157 11.3619 14.0073C11.6535 14.299 12.0077 14.4448 12.4244 14.4448ZM17.4244 14.4448C17.841 14.4448 18.1952 14.299 18.4869 14.0073C18.7785 13.7157 18.9244 13.3615 18.9244 12.9448C18.9244 12.5282 18.7785 12.174 18.4869 11.8823C18.1952 11.5907 17.841 11.4448 17.4244 11.4448C17.0077 11.4448 16.6535 11.5907 16.3619 11.8823C16.0702 12.174 15.9244 12.5282 15.9244 12.9448C15.9244 13.3615 16.0702 13.7157 16.3619 14.0073C16.6535 14.299 17.0077 14.4448 17.4244 14.4448ZM12.4244 22.9448C11.041 22.9448 9.74104 22.6823 8.52438 22.1573C7.30771 21.6323 6.24938 20.9198 5.34938 20.0198C4.44938 19.1198 3.73688 18.0615 3.21188 16.8448C2.68688 15.6282 2.42438 14.3282 2.42438 12.9448C2.42438 11.5615 2.68688 10.2615 3.21188 9.04482C3.73688 7.82816 4.44938 6.76982 5.34938 5.86982C6.24938 4.96982 7.30771 4.25732 8.52438 3.73232C9.74104 3.20732 11.041 2.94482 12.4244 2.94482C13.8077 2.94482 15.1077 3.20732 16.3244 3.73232C17.541 4.25732 18.5994 4.96982 19.4994 5.86982C20.3994 6.76982 21.1119 7.82816 21.6369 9.04482C22.1619 10.2615 22.4244 11.5615 22.4244 12.9448C22.4244 14.3282 22.1619 15.6282 21.6369 16.8448C21.1119 18.0615 20.3994 19.1198 19.4994 20.0198C18.5994 20.9198 17.541 21.6323 16.3244 22.1573C15.1077 22.6823 13.8077 22.9448 12.4244 22.9448ZM12.4244 20.9448C14.6577 20.9448 16.5494 20.1698 18.0994 18.6198C19.6494 17.0698 20.4244 15.1782 20.4244 12.9448C20.4244 10.7115 19.6494 8.81982 18.0994 7.26982C16.5494 5.71982 14.6577 4.94482 12.4244 4.94482C10.191 4.94482 8.29938 5.71982 6.74938 7.26982C5.19938 8.81982 4.42438 10.7115 4.42438 12.9448C4.42438 15.1782 5.19938 17.0698 6.74938 18.6198C8.29938 20.1698 10.191 20.9448 12.4244 20.9448Z" fill="#1C1B1F"/>
</g>
</svg>
