<svg width="18" height="20" viewBox="0 0 18 20" fill="none" xmlns="http://www.w3.org/2000/svg">
<path d="M2.02786 1.50226L3.57851 0.725981C4.09032 0.470041 4.67776 0.409026 5.23124 0.554316C5.78473 0.699606 6.26646 1.04128 6.58658 1.5156L8.17482 3.86785C8.45045 4.27591 8.59135 4.76005 8.57775 5.25229C8.56416 5.74453 8.39674 6.22015 8.09901 6.61238L6.63466 8.5411C6.43913 8.8037 6.76627 9.63873 7.8773 10.9723C8.98931 12.3065 9.75204 12.7783 10.0412 12.6343L12.2073 11.5393C12.6464 11.3173 13.144 11.2382 13.6302 11.3132C14.1165 11.3882 14.5671 11.6135 14.9189 11.9574L16.9398 13.9347C17.348 14.334 17.5974 14.8678 17.6416 15.4371C17.6859 16.0064 17.522 16.5723 17.1804 17.0299L16.1267 18.4413C15.7866 18.8969 15.3317 19.2542 14.8084 19.4766C14.2851 19.699 13.7122 19.7786 13.1481 19.7073C10.3681 19.3558 7.50798 17.3802 4.54076 13.8199C1.56744 10.2546 0.125369 7.06283 0.255307 4.22892C0.281604 3.65786 0.45972 3.10415 0.771295 2.62487C1.08287 2.14558 1.51663 1.75807 2.02786 1.50226Z" fill="#3F4856"/>
</svg>
