<svg width="30" height="27" viewBox="0 0 30 27" fill="none" xmlns="http://www.w3.org/2000/svg">
<path fill-rule="evenodd" clip-rule="evenodd" d="M26.4473 20.1281C26.4475 20.3852 26.3487 20.6318 26.1729 20.8137C25.9968 20.9954 25.7583 21.0976 25.5097 21.0974H22.1637C21.9152 21.0974 21.6767 20.9954 21.5007 20.8137C21.3249 20.6319 21.2261 20.3852 21.2261 20.1281V16.6678C21.2213 16.4075 21.318 16.1562 21.4944 15.9704C21.6707 15.7846 21.912 15.6799 22.1637 15.6799C22.4154 15.6799 22.6565 15.7846 22.8329 15.9704C23.0092 16.1562 23.1058 16.4075 23.1011 16.6678V19.1585H25.5097C25.7584 19.1583 25.9969 19.2605 26.1729 19.4425C26.3487 19.6243 26.4475 19.8709 26.4473 20.1281L26.4473 20.1281ZM22.5241 25.0619C24.0092 25.0619 25.4336 24.4519 26.4838 23.3658C27.5341 22.2798 28.1239 20.8069 28.1239 19.2712C28.1239 17.7355 27.5341 16.2626 26.4838 15.1766C25.4335 14.0905 24.0092 13.4806 22.5241 13.4806C21.0388 13.4806 19.6145 14.0905 18.5644 15.1766C17.5142 16.2627 16.9243 17.7355 16.9243 19.2712C16.9262 20.8067 17.517 22.2787 18.567 23.3643C19.6173 24.4499 21.041 25.0603 22.5259 25.0619H22.5241ZM2.77191 20.7541H15.1866C14.7715 18.5574 15.2971 16.2827 16.6278 14.5176C17.9586 12.7524 19.9635 11.6702 22.1248 11.5506V10.8033H1.87547V19.8264C1.8759 20.0721 1.97039 20.3078 2.13863 20.4815C2.30664 20.6553 2.53455 20.7532 2.77218 20.7537L2.77191 20.7541ZM2.77191 4.15094H3.97181C4.00035 4.95079 4.42936 5.67771 5.10445 6.06948C5.77952 6.461 6.60317 6.461 7.27829 6.06948C7.95314 5.67772 8.38237 4.95079 8.41093 4.15094H15.5895C15.6179 4.95079 16.0471 5.67771 16.7222 6.06948C17.3972 6.461 18.2207 6.461 18.8958 6.06948C19.5709 5.67772 20.0001 4.95079 20.0284 4.15094H21.2286C21.466 4.15138 21.6939 4.2491 21.8617 4.42306C22.0297 4.5968 22.1242 4.83248 22.1244 5.07797V8.86445H1.87514V5.07797C1.87536 4.83223 1.97007 4.59655 2.13808 4.42283C2.3061 4.24887 2.53406 4.15116 2.77191 4.15094ZM5.8444 2.29748V4.06776C5.85024 4.2614 6.00376 4.41524 6.19102 4.41524C6.37828 4.41524 6.53159 4.2614 6.53743 4.06776V2.29748C6.54046 2.20044 6.50521 2.10653 6.43991 2.03676C6.37461 1.96722 6.28487 1.92787 6.19102 1.92787C6.09718 1.92787 6.00744 1.96722 5.94214 2.03676C5.87683 2.10653 5.84159 2.20044 5.8444 2.29748ZM17.4626 2.29748V4.06776H17.4628C17.4684 4.2614 17.6219 4.41524 17.8092 4.41524C17.9964 4.41524 18.15 4.2614 18.1556 4.06776V2.29748C18.1586 2.20044 18.1234 2.10653 18.0581 2.03676C17.9928 1.96722 17.903 1.92787 17.8092 1.92787C17.7153 1.92787 17.6256 1.96722 17.5603 2.03676C17.495 2.10653 17.4598 2.20044 17.4628 2.29748H17.4626ZM24.0001 11.6904V5.07832C23.9993 4.31854 23.7071 3.59025 23.1877 3.05291C22.6683 2.51559 21.9639 2.21328 21.2291 2.21236H20.0292C20.0006 1.41228 19.5716 0.685589 18.8965 0.293822C18.2214 -0.0979348 17.3978 -0.0979348 16.7227 0.293822C16.0478 0.685578 15.6186 1.41228 15.59 2.21236H8.41033C8.38178 1.41228 7.95277 0.685589 7.27768 0.293822C6.60259 -0.0979462 5.77919 -0.0979348 5.10406 0.293822C4.42894 0.685578 3.99976 1.41228 3.97142 2.21236H2.7713C2.03656 2.21326 1.33226 2.51557 0.812629 3.05291C0.293017 3.59023 0.0008857 4.31849 0 5.07832V19.8274C0.000864941 20.5872 0.293216 21.3157 0.812851 21.8531C1.33246 22.3904 2.03694 22.6925 2.77174 22.6934H15.8214C16.9649 25.0868 19.2217 26.7008 21.791 26.9627C24.3601 27.2245 26.8782 26.0969 28.4515 23.9804C30.0246 21.8638 30.4305 19.0576 29.5249 16.5578C28.6196 14.0577 26.5307 12.2179 23.9999 11.6909L24.0001 11.6904Z" fill="#3F4856"/>
</svg>
