<svg width="18" height="18" viewBox="0 0 18 18" fill="none" xmlns="http://www.w3.org/2000/svg">
<path fill-rule="evenodd" clip-rule="evenodd" d="M11.5415 3.3518C13.8057 5.61301 13.8132 9.28293 11.5596 11.5531L11.5474 11.5653C9.28733 13.8289 5.62291 13.8322 3.35875 11.5712C1.09259 9.30822 1.08731 5.63351 3.34678 3.36385C5.60646 1.09418 9.2753 1.0889 11.5415 3.35185L11.5415 3.3518ZM12.1093 13.2852C9.18741 15.6358 4.90521 15.4575 2.18972 12.7456C-0.723928 9.83593 -0.730763 5.11161 2.17441 2.19311C5.07962 -0.725045 9.79666 -0.731891 12.7107 2.17777C15.426 4.88944 15.6168 9.17754 13.2782 12.1106L18 16.826L16.8311 18L12.1093 13.2852Z" fill="black"/>
</svg>
