<svg width="16" height="20" viewBox="0 0 16 20" fill="none" xmlns="http://www.w3.org/2000/svg">
<path d="M14.5779 10.8929V13.0359H8.5333V10.8929H0V9.10721H8.5333V6.96424H14.5779V9.10721H16V10.8929H14.5779ZM10.3111 8.74995V11.2501H12.8001V8.74995H10.3111ZM6.75553 3.92867V6.07139H0.711172V3.92867H0.000126914V2.14297H0.711172V0H6.75553V2.14297H15.9999V3.92867H6.75553ZM2.48894 1.7857V4.28562H4.97776V1.7857H2.48894ZM9.24447 17.857V20H3.19986V17.857H0V16.0713H3.19986V13.9286H9.24447V16.0713H16V17.857H9.24447ZM4.97763 15.7143V18.2142H7.4667V15.7143H4.97763Z" fill="#2574FF"/>
</svg>
