<svg width="4" height="18" viewBox="0 0 4 18" fill="none" xmlns="http://www.w3.org/2000/svg">
<path d="M3.96 1.52632C4.01333 1.77004 4.01333 2.02151 3.96 2.26523C3.91017 2.50911 3.80919 2.7411 3.66289 2.94707C3.58932 3.05062 3.50572 3.14734 3.41309 3.23598C3.03774 3.58911 2.53115 3.78813 2.00245 3.79016C1.87153 3.79063 1.74095 3.77779 1.61287 3.75226C1.48463 3.72863 1.35923 3.69296 1.23835 3.6457C1.1178 3.59813 1.00244 3.53946 0.893923 3.47049C0.784742 3.40072 0.682752 3.32143 0.589288 3.23359C0.495824 3.14559 0.412226 3.04886 0.339496 2.94468C0.266932 2.84177 0.204902 2.73236 0.154742 2.61804C0.104915 2.50339 0.0672962 2.38447 0.0423851 2.26285C-0.0107844 2.01913 -0.0107844 1.76765 0.0423851 1.52393C0.0672975 1.40231 0.104915 1.28339 0.154742 1.16874C0.204902 1.05442 0.266932 0.945009 0.339496 0.842098C0.483287 0.633267 0.671216 0.455035 0.891436 0.318651C0.999949 0.249834 1.11532 0.191007 1.23586 0.143436C1.35675 0.0961814 1.48215 0.0605043 1.61039 0.0368792C2.26463 -0.0872784 2.94078 0.10633 3.41311 0.553181C3.50574 0.64182 3.58933 0.738545 3.6629 0.842089C3.73563 0.945 3.79749 1.05441 3.84765 1.16874C3.89765 1.28418 3.93525 1.40391 3.96 1.52632ZM3.84764 8.2749C3.79748 8.16057 3.73562 8.05116 3.66289 7.94825C3.5191 7.73942 3.33117 7.56119 3.11095 7.42481C3.00243 7.35583 2.88707 7.29716 2.76652 7.24959C2.64563 7.20234 2.52024 7.16666 2.39199 7.14303C1.73793 7.01888 1.0616 7.21248 0.589275 7.65934C0.496646 7.74797 0.413048 7.8447 0.339483 7.94824C0.266919 8.05116 0.204889 8.16057 0.154729 8.27489C0.104902 8.38953 0.0672832 8.50846 0.042372 8.63008C0.0162889 8.7517 0.00374945 8.87554 0.00491968 8.99954C0.00491968 9.50188 0.215423 9.98376 0.589946 10.3391C0.964637 10.6943 1.47275 10.8939 2.00243 10.8939C2.13335 10.8944 2.26393 10.8816 2.39201 10.856C2.52025 10.8324 2.64565 10.7967 2.76653 10.7495C2.88708 10.7019 3.00245 10.6432 3.11096 10.5743C3.22014 10.5045 3.32213 10.4252 3.41559 10.3374C3.78794 9.98139 3.9978 9.50095 3.99994 8.99955C4.00027 8.87539 3.9869 8.75155 3.95998 8.63008C3.93506 8.50846 3.89747 8.38954 3.84764 8.2749ZM3.84764 15.3787C3.79748 15.2643 3.73562 15.1549 3.66289 15.052C3.58932 14.9485 3.50572 14.8518 3.41309 14.7631C3.3203 14.6745 3.21831 14.5952 3.10846 14.5262C2.99995 14.4574 2.88458 14.3986 2.76403 14.351C2.14806 14.1095 1.44567 14.1752 0.891415 14.5262C0.781566 14.5952 0.679575 14.6745 0.586779 14.7631C0.49415 14.8518 0.410553 14.9485 0.336988 15.052C0.264424 15.1549 0.202395 15.2643 0.152234 15.3787C0.102408 15.4933 0.0647883 15.6122 0.0398771 15.7339C-0.0132924 15.9776 -0.0132924 16.229 0.0398771 16.4728C0.0647895 16.5944 0.102408 16.7133 0.152234 16.828C0.202395 16.9423 0.264424 17.0517 0.336988 17.1546C0.410557 17.2582 0.494154 17.3549 0.586779 17.4435C0.679575 17.5322 0.781566 17.6114 0.891415 17.6804C0.999928 17.7492 1.11529 17.8081 1.23584 17.8556C1.35673 17.9029 1.48213 17.9386 1.61037 17.9622C1.86735 18.0126 2.13252 18.0126 2.3895 17.9622C2.51775 17.9386 2.64314 17.9029 2.76403 17.8556C2.88458 17.8081 2.99994 17.7492 3.10845 17.6804C3.2183 17.6114 3.32029 17.5322 3.41309 17.4435C3.50572 17.3549 3.58932 17.2582 3.66288 17.1546C3.80918 16.9486 3.91017 16.7166 3.95999 16.4728C4.01333 16.229 4.01333 15.9776 3.95999 15.7339C3.93508 15.6122 3.89747 15.4933 3.84764 15.3787Z" fill="black"/>
</svg>
