<svg width="22" height="15" viewBox="0 0 22 15" fill="none" xmlns="http://www.w3.org/2000/svg">
<path d="M0.349675 0.666748C0.340448 0.666748 0.333008 0.67411 0.333008 0.683239V3.10909C0.333008 3.11822 0.340448 3.12543 0.349675 3.12543H21.6497C21.6589 3.12543 21.6663 3.11822 21.6663 3.10909V0.683239C21.6663 0.67411 21.6589 0.666748 21.6497 0.666748H0.349675ZM0.375865 6.49966C0.366639 6.49966 0.359199 6.50702 0.359199 6.51615V8.942C0.359199 8.95113 0.366639 8.95849 0.375865 8.95849H14.5649C14.5742 8.95849 14.5816 8.95113 14.5816 8.942V6.51615C14.5816 6.50702 14.5742 6.49966 14.5649 6.49966H0.375865ZM0.43182 12.2082C0.422594 12.2082 0.415302 12.2155 0.415302 12.2247V14.6503C0.415302 14.6594 0.422594 14.6667 0.43182 14.6667H7.50998C7.5192 14.6667 7.5265 14.6594 7.5265 14.6503V12.2247C7.5265 12.2155 7.5192 12.2082 7.50998 12.2082H0.43182Z" fill="#3F4856"/>
</svg>
